<svg id="visual" viewBox="0 0 960 50" width="960" height="50" xmlns="http://www.w3.org/2000/svg" xmlns:xlink="http://www.w3.org/1999/xlink" version="1.1"><path d="M0 13L87 4L175 20L262 15L349 4L436 13L524 1L611 1L698 21L785 2L873 15L960 6L960 51L873 51L785 51L698 51L611 51L524 51L436 51L349 51L262 51L175 51L87 51L0 51Z" fill="#c9c9c9"></path><path d="M0 27L87 11L175 16L262 28L349 14L436 18L524 30L611 13L698 16L785 14L873 25L960 13L960 51L873 51L785 51L698 51L611 51L524 51L436 51L349 51L262 51L175 51L87 51L0 51Z" fill="#888888"></path><path d="M0 33L87 39L175 28L262 22L349 31L436 27L524 39L611 36L698 28L785 36L873 37L960 27L960 51L873 51L785 51L698 51L611 51L524 51L436 51L349 51L262 51L175 51L87 51L0 51Z" fill="#4d4d4d"></path><path d="M0 36L87 33L175 43L262 37L349 33L436 45L524 40L611 44L698 36L785 37L873 41L960 30L960 51L873 51L785 51L698 51L611 51L524 51L436 51L349 51L262 51L175 51L87 51L0 51Z" fill="#191919"></path></svg>